<?xml version="1.0" standalone="no"?>
<!DOCTYPE svg PUBLIC "-//W3C//DTD SVG 20010904//EN"
 "http://www.w3.org/TR/2001/REC-SVG-20010904/DTD/svg10.dtd">
<svg version="1.0" xmlns="http://www.w3.org/2000/svg"
 width="351.000000pt" height="488.000000pt" viewBox="0 0 351.000000 488.000000"
 preserveAspectRatio="xMidYMid meet">

<g transform="translate(0.000000,488.000000) scale(0.100000,-0.100000)"
fill="#000000" stroke="none">
<path d="M445 3196 c-136 -34 -267 -132 -329 -246 -76 -139 -73 -272 10 -431
33 -62 274 -367 330 -416 48 -44 127 -25 159 37 28 53 20 69 -105 220 -145
175 -171 223 -171 312 0 80 7 112 39 163 53 86 123 142 220 174 152 51 367 3
458 -103 19 -22 34 -33 34 -25 0 26 -69 132 -118 182 -55 56 -180 122 -261
137 -72 13 -204 11 -266 -4z"/>
<path d="M2093 3005 c-20 -14 -178 -226 -185 -247 -2 -5 -19 -1 -38 9 -33 17
-112 21 -446 23 -19 0 -25 29 -11 50 11 19 24 20 222 20 l211 0 51 68 51 69
-272 6 c-272 7 -315 4 -372 -26 -53 -27 -69 -62 -69 -148 0 -89 12 -109 83
-141 39 -17 64 -19 257 -17 232 3 244 0 281 -56 24 -37 6 -53 -22 -19 l-23 29
-17 -24 -17 -24 -216 7 c-170 6 -220 4 -233 -6 -25 -20 -98 -108 -98 -119 0
-6 105 -7 283 -3 255 5 285 8 309 25 34 24 41 24 33 -1 -8 -26 3 -25 42 3 27
18 234 298 247 332 4 12 -2 20 75 -95 36 -52 66 -97 68 -99 6 -8 89 21 126 46
39 25 39 25 20 46 -11 12 -57 76 -102 142 -46 66 -95 130 -110 142 -31 27 -95
31 -128 8z"/>
<path d="M2793 2995 c-99 -27 -170 -87 -250 -210 -50 -79 -124 -159 -165 -181
-20 -10 -66 -14 -170 -14 l-143 -1 -42 -68 c-24 -38 -43 -71 -43 -75 0 -11
326 -7 382 5 130 27 238 109 308 233 38 66 77 108 139 148 l45 28 213 0 213 0
49 68 c28 37 50 70 51 75 0 4 -120 7 -267 6 -197 0 -282 -4 -320 -14z"/>
<path d="M2761 2772 l-54 -48 64 -29 64 -30 196 4 c218 3 245 -2 274 -59 18
-35 18 -63 1 -112 -8 -21 -10 -38 -6 -38 13 0 91 99 106 136 19 45 11 84 -24
116 -58 55 -74 58 -306 58 l-215 0 -19 25 c-11 14 -21 25 -23 25 -2 0 -28 -22
-58 -48z"/>
<path d="M620 2803 c-39 -12 -63 -30 -76 -55 -30 -58 -21 -76 109 -235 136
-165 167 -222 167 -306 0 -97 -25 -153 -104 -233 -84 -84 -150 -114 -266 -121
-132 -8 -257 32 -337 110 -24 23 -43 38 -43 34 0 -24 59 -118 102 -163 101
-107 204 -152 363 -161 122 -7 191 6 288 54 182 91 300 297 269 472 -16 89
-70 195 -147 291 -191 236 -248 299 -277 309 -17 6 -31 11 -32 10 -1 0 -8 -3
-16 -6z"/>
<path d="M3216 2601 c-16 -17 -31 -18 -235 -13 l-217 5 -58 -74 -57 -74 271
-3 c261 -2 274 -1 306 19 41 25 74 65 74 91 0 18 -44 68 -60 68 -4 0 -15 -8
-24 -19z"/>
<path d="M2063 2272 c-7 -17 1 -25 40 -38 l32 -11 3 -193 c3 -205 0 -220 -45
-220 -27 0 -43 -28 -22 -41 19 -12 600 -11 618 0 12 8 12 12 2 25 -8 9 -21 16
-31 16 -33 0 -39 22 -20 80 l17 55 87 0 88 0 19 -55 c25 -71 24 -78 -8 -82
-20 -2 -28 -9 -28 -23 0 -18 8 -20 95 -23 104 -2 132 6 111 32 -8 9 -19 16
-26 16 -27 0 -50 45 -113 220 -78 218 -97 260 -119 260 -14 0 -24 -8 -28 -22
-11 -38 -134 -355 -161 -414 -14 -31 -31 -44 -61 -44 -12 0 -14 11 -11 57 2
48 0 58 -14 61 -12 2 -25 -12 -42 -47 -15 -28 -35 -55 -46 -61 -11 -6 -53 -10
-93 -8 l-72 3 -3 98 -3 97 38 0 c49 0 65 -11 79 -52 6 -18 18 -34 27 -36 15
-3 17 9 17 107 0 102 -2 111 -19 111 -12 0 -21 -10 -26 -27 -10 -43 -24 -53
-70 -53 l-42 0 -6 60 c-4 33 -4 73 -1 90 6 29 8 30 68 30 69 0 97 -14 121 -61
10 -17 23 -29 36 -29 18 0 20 5 17 68 l-3 67 -199 0 c-153 0 -200 -3 -203 -13z
m687 -113 c0 -6 14 -44 30 -86 17 -41 30 -79 30 -84 0 -5 -29 -9 -65 -9 -45 0
-65 4 -65 13 0 6 11 39 25 72 13 33 25 70 25 83 0 12 5 22 10 22 6 0 10 -5 10
-11z"/>
<path d="M1230 2260 c0 -15 7 -20 24 -20 50 0 56 -19 55 -178 0 -81 -4 -169
-7 -197 -7 -46 -9 -50 -37 -53 -35 -4 -49 -21 -33 -39 11 -14 172 -18 216 -7
30 9 25 38 -8 42 -49 7 -50 12 -50 216 0 105 4 196 8 203 4 6 21 13 37 15 19
2 31 10 33 21 3 15 -8 17 -117 17 -114 0 -121 -1 -121 -20z"/>
<path d="M1516 2271 c-7 -11 13 -28 39 -33 19 -3 20 -11 20 -213 l0 -210 -30
-5 c-40 -7 -46 -37 -9 -46 15 -4 83 -4 152 -1 107 5 132 10 178 32 62 30 120
93 134 144 13 47 13 126 -1 175 -15 53 -100 138 -155 154 -48 14 -320 17 -328
3z m242 -31 c118 -26 181 -143 152 -284 -19 -93 -80 -146 -169 -146 -69 0 -71
6 -71 229 0 109 3 201 7 204 9 9 24 9 81 -3z"/>
<path d="M3040 2268 c0 -7 15 -20 33 -28 l32 -15 3 -185 c1 -102 0 -195 -3
-207 -3 -14 -16 -24 -35 -28 -21 -5 -30 -13 -30 -26 0 -18 9 -19 189 -19 104
0 196 3 205 6 13 5 16 22 16 85 0 93 -16 105 -49 35 -34 -69 -53 -81 -127 -80
-36 0 -69 5 -74 10 -7 7 -9 88 -8 215 l3 204 33 10 c17 5 32 15 32 22 0 10
-27 13 -110 13 -81 0 -110 -3 -110 -12z"/>
</g>
</svg>
